<svg id="visual" viewBox="0 0 900 600" width="900" height="600" xmlns="http://www.w3.org/2000/svg" xmlns:xlink="http://www.w3.org/1999/xlink" version="1.1"><g><g transform="translate(361 207)"><path d="M0 -48.6L42.1 24.3L-42.1 24.3Z" fill="none" stroke="#d2441e" stroke-width="2"></path></g><g transform="translate(266 469)"><path d="M0 -35L30.3 17.5L-30.3 17.5Z" fill="none" stroke="#d2441e" stroke-width="2"></path></g><g transform="translate(764 106)"><path d="M0 -37L32 18.5L-32 18.5Z" fill="none" stroke="#d2441e" stroke-width="2"></path></g><g transform="translate(201 178)"><path d="M0 -40L34.6 20L-34.6 20Z" fill="none" stroke="#d2441e" stroke-width="2"></path></g><g transform="translate(860 337)"><path d="M0 -43L37.2 21.5L-37.2 21.5Z" fill="none" stroke="#d2441e" stroke-width="2"></path></g><g transform="translate(787 465)"><path d="M0 -43L37.2 21.5L-37.2 21.5Z" fill="none" stroke="#d2441e" stroke-width="2"></path></g><g transform="translate(532 358)"><path d="M0 -25L21.7 12.5L-21.7 12.5Z" fill="none" stroke="#d2441e" stroke-width="2"></path></g><g transform="translate(372 387)"><path d="M0 -24L20.8 12L-20.8 12Z" fill="none" stroke="#d2441e" stroke-width="2"></path></g><g transform="translate(127 397)"><path d="M0 -24L20.8 12L-20.8 12Z" fill="none" stroke="#d2441e" stroke-width="2"></path></g><g transform="translate(305 113)"><path d="M0 -45L39 22.5L-39 22.5Z" fill="none" stroke="#d2441e" stroke-width="2"></path></g><g transform="translate(16 103)"><path d="M0 -26L22.5 13L-22.5 13Z" fill="none" stroke="#d2441e" stroke-width="2"></path></g><g transform="translate(670 27)"><path d="M0 -21L18.2 10.5L-18.2 10.5Z" fill="none" stroke="#d2441e" stroke-width="2"></path></g><g transform="translate(473 474)"><path d="M0 -20L17.3 10L-17.3 10Z" fill="none" stroke="#d2441e" stroke-width="2"></path></g><g transform="translate(689 315)"><path d="M0 -31L26.8 15.5L-26.8 15.5Z" fill="none" stroke="#d2441e" stroke-width="2"></path></g><g transform="translate(580 257)"><path d="M0 -43L37.2 21.5L-37.2 21.5Z" fill="none" stroke="#d2441e" stroke-width="2"></path></g><g transform="translate(240 272)"><path d="M0 -38L32.9 19L-32.9 19Z" fill="none" stroke="#d2441e" stroke-width="2"></path></g><g transform="translate(859 193)"><path d="M0 -34L29.4 17L-29.4 17Z" fill="none" stroke="#d2441e" stroke-width="2"></path></g><g transform="translate(468 144)"><path d="M0 -18L15.6 9L-15.6 9Z" fill="none" stroke="#d2441e" stroke-width="2"></path></g><g transform="translate(622 479)"><path d="M0 -46L39.8 23L-39.8 23Z" fill="none" stroke="#d2441e" stroke-width="2"></path></g><g transform="translate(623 152)"><path d="M0 -34L29.4 17L-29.4 17Z" fill="none" stroke="#d2441e" stroke-width="2"></path></g><g transform="translate(202 13)"><path d="M0 -38L32.9 19L-32.9 19Z" fill="none" stroke="#d2441e" stroke-width="2"></path></g><g transform="translate(276 593)"><path d="M0 -43L37.2 21.5L-37.2 21.5Z" fill="none" stroke="#d2441e" stroke-width="2"></path></g><g transform="translate(478 256)"><path d="M0 -27L23.4 13.5L-23.4 13.5Z" fill="none" stroke="#d2441e" stroke-width="2"></path></g><g transform="translate(551 556)"><path d="M0 -30L26 15L-26 15Z" fill="none" stroke="#d2441e" stroke-width="2"></path></g><g transform="translate(147 575)"><path d="M0 -25L21.7 12.5L-21.7 12.5Z" fill="none" stroke="#d2441e" stroke-width="2"></path></g><g transform="translate(452 7)"><path d="M0 -30L26 15L-26 15Z" fill="none" stroke="#d2441e" stroke-width="2"></path></g><g transform="translate(748 579)"><path d="M0 -37L32 18.5L-32 18.5Z" fill="none" stroke="#d2441e" stroke-width="2"></path></g><g transform="translate(845 4)"><path d="M0 -44L38.1 22L-38.1 22Z" fill="none" stroke="#d2441e" stroke-width="2"></path></g><g transform="translate(72 19)"><path d="M0 -30L26 15L-26 15Z" fill="none" stroke="#d2441e" stroke-width="2"></path></g><g transform="translate(93 493)"><path d="M0 -19L16.5 9.5L-16.5 9.5Z" fill="none" stroke="#d2441e" stroke-width="2"></path></g><g transform="translate(106 144)"><path d="M0 -19L16.5 9.5L-16.5 9.5Z" fill="none" stroke="#d2441e" stroke-width="2"></path></g><g transform="translate(756 206)"><path d="M0 -47L40.7 23.5L-40.7 23.5Z" fill="none" stroke="#d2441e" stroke-width="2"></path></g><g transform="translate(129 270)"><path d="M0 -19L16.5 9.5L-16.5 9.5Z" fill="none" stroke="#d2441e" stroke-width="2"></path></g><g transform="translate(535 73)"><path d="M0 -46L39.8 23L-39.8 23Z" fill="none" stroke="#d2441e" stroke-width="2"></path></g><g transform="translate(35 223)"><path d="M0 -32L27.7 16L-27.7 16Z" fill="none" stroke="#d2441e" stroke-width="2"></path></g><g transform="translate(436 585)"><path d="M0 -43L37.2 21.5L-37.2 21.5Z" fill="none" stroke="#d2441e" stroke-width="2"></path></g><g transform="translate(15 340)"><path d="M0 -24L20.8 12L-20.8 12Z" fill="none" stroke="#d2441e" stroke-width="2"></path></g><g transform="translate(33 580)"><path d="M0 -41L35.5 20.5L-35.5 20.5Z" fill="none" stroke="#d2441e" stroke-width="2"></path></g><g transform="translate(357 30)"><path d="M0 -22L19.1 11L-19.1 11Z" fill="none" stroke="#d2441e" stroke-width="2"></path></g><g transform="translate(886 482)"><path d="M0 -30L26 15L-26 15Z" fill="none" stroke="#d2441e" stroke-width="2"></path></g><g transform="translate(366 507)"><path d="M0 -38L32.9 19L-32.9 19Z" fill="none" stroke="#d2441e" stroke-width="2"></path></g><g transform="translate(892 582)"><path d="M0 -38L32.9 19L-32.9 19Z" fill="none" stroke="#d2441e" stroke-width="2"></path></g><g transform="translate(252 371)"><path d="M0 -28L24.2 14L-24.2 14Z" stroke="#d2441e" fill="none" stroke-width="2"></path></g><g transform="translate(1 449)"><path d="M0 -22L19.1 11L-19.1 11Z" stroke="#d2441e" fill="none" stroke-width="2"></path></g></g></svg>